<svg xmlns="http://www.w3.org/2000/svg" width="512" height="512" viewBox="0 0 512 512">
  <defs>
    <linearGradient id="bg" x1="0%" y1="0%" x2="100%" y2="100%">
      <stop offset="0%" style="stop-color:#667eea"/>
      <stop offset="100%" style="stop-color:#764ba2"/>
    </linearGradient>
  </defs>
  <rect width="512" height="512" rx="80" fill="url(#bg)"/>
  <path d="M352 96v240c0 35.3-28.7 64-64 64s-64-28.7-64-64 28.7-64 64-64c17.7 0 33.8 7.2 45.4 18.8V144l-144 32v200c0 35.3-28.7 64-64 64s-64-28.7-64-64 28.7-64 64-64c17.7 0 33.8 7.2 45.4 18.8V128c0-15.5 11.2-28.8 26.5-31.4l160-32c18.2-3.6 33.8 10.7 33.8 29.4z" fill="white"/>
</svg>
