<svg xmlns="http://www.w3.org/2000/svg" viewBox="0 0 512 512">
  <defs>
    <linearGradient id="bg" x1="0%" y1="0%" x2="100%" y2="100%">
      <stop offset="0%" style="stop-color:#14b8a6"/>
      <stop offset="100%" style="stop-color:#0d9488"/>
    </linearGradient>
  </defs>
  <!-- Background circle -->
  <circle cx="256" cy="256" r="256" fill="url(#bg)"/>
  <!-- Musical note -->
  <path d="M352 96v240c0 35.3-28.7 64-64 64s-64-28.7-64-64s28.7-64 64-64c17.7 0 33.8 7.2 45.4 18.8V144l-144 32v200c0 35.3-28.7 64-64 64s-64-28.7-64-64s28.7-64 64-64c17.7 0 33.8 7.2 45.4 18.8V128c0-15.5 11.2-28.8 26.5-31.4l160-32c18.2-3.6 33.8 10.7 33.8 29.4z" fill="white"/>
</svg>
