<svg xmlns="http://www.w3.org/2000/svg" viewBox="0 0 1200 630" width="1200" height="630">
  <defs>
    <linearGradient id="bgGrad" x1="0%" y1="0%" x2="100%" y2="100%">
      <stop offset="0%" style="stop-color:#1a1a2e"/>
      <stop offset="100%" style="stop-color:#16213e"/>
    </linearGradient>
    <linearGradient id="accentGrad" x1="0%" y1="0%" x2="100%" y2="0%">
      <stop offset="0%" style="stop-color:#667eea"/>
      <stop offset="100%" style="stop-color:#764ba2"/>
    </linearGradient>
    <linearGradient id="barGrad" x1="0%" y1="0%" x2="100%" y2="0%">
      <stop offset="0%" style="stop-color:#667eea;stop-opacity:0.3"/>
      <stop offset="40%" style="stop-color:#667eea;stop-opacity:0.8"/>
      <stop offset="60%" style="stop-color:#764ba2;stop-opacity:0.8"/>
      <stop offset="100%" style="stop-color:#764ba2;stop-opacity:0.3"/>
    </linearGradient>
  </defs>

  <!-- Background -->
  <rect width="1200" height="630" fill="url(#bgGrad)"/>

  <!-- Subtle grid pattern -->
  <g opacity="0.04">
    <line x1="0" y1="0" x2="1200" y2="630" stroke="#667eea" stroke-width="1"/>
    <line x1="200" y1="0" x2="1200" y2="500" stroke="#667eea" stroke-width="1"/>
    <line x1="400" y1="0" x2="1200" y2="400" stroke="#667eea" stroke-width="1"/>
    <line x1="0" y1="200" x2="1000" y2="630" stroke="#667eea" stroke-width="1"/>
    <line x1="0" y1="400" x2="600" y2="630" stroke="#667eea" stroke-width="1"/>
  </g>

  <!-- Top accent line -->
  <rect x="0" y="0" width="1200" height="4" fill="url(#accentGrad)"/>

  <!-- Waveform visualization behind text -->
  <g transform="translate(100, 320)" opacity="0.15">
    <rect x="0" y="-30" width="8" height="60" rx="4" fill="#667eea"/>
    <rect x="18" y="-50" width="8" height="100" rx="4" fill="#667eea"/>
    <rect x="36" y="-20" width="8" height="40" rx="4" fill="#667eea"/>
    <rect x="54" y="-65" width="8" height="130" rx="4" fill="#667eea"/>
    <rect x="72" y="-40" width="8" height="80" rx="4" fill="#667eea"/>
    <rect x="90" y="-55" width="8" height="110" rx="4" fill="#667eea"/>
    <rect x="108" y="-25" width="8" height="50" rx="4" fill="#667eea"/>
    <rect x="126" y="-70" width="8" height="140" rx="4" fill="#764ba2"/>
    <rect x="144" y="-45" width="8" height="90" rx="4" fill="#764ba2"/>
    <rect x="162" y="-60" width="8" height="120" rx="4" fill="#764ba2"/>
    <rect x="180" y="-30" width="8" height="60" rx="4" fill="#764ba2"/>
    <rect x="198" y="-50" width="8" height="100" rx="4" fill="#764ba2"/>
    <rect x="216" y="-35" width="8" height="70" rx="4" fill="#764ba2"/>
    <rect x="234" y="-55" width="8" height="110" rx="4" fill="#667eea"/>
    <rect x="252" y="-20" width="8" height="40" rx="4" fill="#667eea"/>
    <rect x="270" y="-45" width="8" height="90" rx="4" fill="#667eea"/>
    <rect x="288" y="-65" width="8" height="130" rx="4" fill="#667eea"/>
    <rect x="306" y="-30" width="8" height="60" rx="4" fill="#667eea"/>
    <rect x="324" y="-50" width="8" height="100" rx="4" fill="#764ba2"/>
    <rect x="342" y="-40" width="8" height="80" rx="4" fill="#764ba2"/>
    <rect x="360" y="-60" width="8" height="120" rx="4" fill="#764ba2"/>
    <rect x="378" y="-25" width="8" height="50" rx="4" fill="#764ba2"/>
    <rect x="396" y="-55" width="8" height="110" rx="4" fill="#667eea"/>
    <rect x="414" y="-35" width="8" height="70" rx="4" fill="#667eea"/>
    <rect x="432" y="-70" width="8" height="140" rx="4" fill="#667eea"/>
    <rect x="450" y="-30" width="8" height="60" rx="4" fill="#667eea"/>
    <rect x="468" y="-50" width="8" height="100" rx="4" fill="#764ba2"/>
    <rect x="486" y="-45" width="8" height="90" rx="4" fill="#764ba2"/>
    <rect x="504" y="-60" width="8" height="120" rx="4" fill="#764ba2"/>
    <rect x="522" y="-20" width="8" height="40" rx="4" fill="#764ba2"/>
    <rect x="540" y="-55" width="8" height="110" rx="4" fill="#667eea"/>
    <rect x="558" y="-40" width="8" height="80" rx="4" fill="#667eea"/>
    <rect x="576" y="-65" width="8" height="130" rx="4" fill="#667eea"/>
    <rect x="594" y="-30" width="8" height="60" rx="4" fill="#667eea"/>
    <rect x="612" y="-50" width="8" height="100" rx="4" fill="#764ba2"/>
    <rect x="630" y="-35" width="8" height="70" rx="4" fill="#764ba2"/>
    <rect x="648" y="-55" width="8" height="110" rx="4" fill="#764ba2"/>
    <rect x="666" y="-45" width="8" height="90" rx="4" fill="#764ba2"/>
    <rect x="684" y="-70" width="8" height="140" rx="4" fill="#667eea"/>
    <rect x="702" y="-25" width="8" height="50" rx="4" fill="#667eea"/>
    <rect x="720" y="-60" width="8" height="120" rx="4" fill="#667eea"/>
    <rect x="738" y="-40" width="8" height="80" rx="4" fill="#667eea"/>
    <rect x="756" y="-50" width="8" height="100" rx="4" fill="#764ba2"/>
    <rect x="774" y="-30" width="8" height="60" rx="4" fill="#764ba2"/>
    <rect x="792" y="-65" width="8" height="130" rx="4" fill="#764ba2"/>
    <rect x="810" y="-20" width="8" height="40" rx="4" fill="#764ba2"/>
    <rect x="828" y="-55" width="8" height="110" rx="4" fill="#667eea"/>
    <rect x="846" y="-45" width="8" height="90" rx="4" fill="#667eea"/>
    <rect x="864" y="-35" width="8" height="70" rx="4" fill="#667eea"/>
    <rect x="882" y="-60" width="8" height="120" rx="4" fill="#667eea"/>
    <rect x="900" y="-50" width="8" height="100" rx="4" fill="#764ba2"/>
    <rect x="918" y="-30" width="8" height="60" rx="4" fill="#764ba2"/>
    <rect x="936" y="-70" width="8" height="140" rx="4" fill="#764ba2"/>
    <rect x="954" y="-40" width="8" height="80" rx="4" fill="#764ba2"/>
    <rect x="972" y="-55" width="8" height="110" rx="4" fill="#667eea"/>
  </g>

  <!-- Loop markers on waveform -->
  <g transform="translate(100, 320)">
    <!-- Left loop marker -->
    <rect x="126" y="-85" width="3" height="170" fill="#667eea" opacity="0.6"/>
    <polygon points="126,-85 140,-85 126,-70" fill="#667eea" opacity="0.8"/>
    <!-- Right loop marker -->
    <rect x="648" y="-85" width="3" height="170" fill="#667eea" opacity="0.6"/>
    <polygon points="651,-85 637,-85 651,-70" fill="#667eea" opacity="0.8"/>
    <!-- Loop region highlight -->
    <rect x="129" y="-85" width="519" height="170" fill="#667eea" opacity="0.05" rx="4"/>
  </g>

  <!-- Speed control indicator -->
  <g transform="translate(870, 420)">
    <rect x="0" y="0" width="220" height="50" rx="25" fill="#667eea" opacity="0.15" stroke="#667eea" stroke-width="1.5" stroke-opacity="0.4"/>
    <text x="28" y="32" font-family="system-ui, -apple-system, sans-serif" font-size="22" fill="#a0aec0" font-weight="500">Speed</text>
    <text x="130" y="33" font-family="system-ui, -apple-system, sans-serif" font-size="24" fill="#667eea" font-weight="700">0.5x</text>
  </g>

  <!-- Play button circle -->
  <g transform="translate(80, 130)">
    <circle cx="32" cy="32" r="32" fill="#667eea" opacity="0.15" stroke="#667eea" stroke-width="2" stroke-opacity="0.5"/>
    <polygon points="26,18 26,46 48,32" fill="#667eea" opacity="0.8"/>
  </g>

  <!-- Main Title -->
  <text x="165" y="155" font-family="system-ui, -apple-system, 'Segoe UI', sans-serif" font-size="68" fill="#ffffff" font-weight="800" letter-spacing="-1">Practice</text>
  <text x="502" y="155" font-family="system-ui, -apple-system, 'Segoe UI', sans-serif" font-size="68" fill="#667eea" font-weight="800" letter-spacing="-1">Loop</text>

  <!-- Tagline -->
  <text x="165" y="210" font-family="system-ui, -apple-system, 'Segoe UI', sans-serif" font-size="28" fill="#a0aec0" font-weight="400">Slow Down &amp; Loop YouTube Videos for Practice</text>

  <!-- Bottom bar -->
  <rect x="0" y="560" width="1200" height="70" fill="#0f0f23"/>
  <rect x="0" y="560" width="1200" height="2" fill="url(#accentGrad)" opacity="0.5"/>

  <!-- URL in bottom bar -->
  <text x="60" y="602" font-family="monospace, 'Courier New'" font-size="18" fill="#667eea" opacity="0.8">practiceloop.app</text>

  <!-- Feature pills in bottom bar -->
  <g transform="translate(400, 578)">
    <rect x="0" y="0" width="140" height="34" rx="17" fill="#667eea" opacity="0.12"/>
    <text x="70" y="23" font-family="system-ui, sans-serif" font-size="14" fill="#667eea" text-anchor="middle" font-weight="600">Speed Control</text>
  </g>
  <g transform="translate(560, 578)">
    <rect x="0" y="0" width="120" height="34" rx="17" fill="#667eea" opacity="0.12"/>
    <text x="60" y="23" font-family="system-ui, sans-serif" font-size="14" fill="#667eea" text-anchor="middle" font-weight="600">Loop Sections</text>
  </g>
  <g transform="translate(700, 578)">
    <rect x="0" y="0" width="100" height="34" rx="17" fill="#667eea" opacity="0.12"/>
    <text x="50" y="23" font-family="system-ui, sans-serif" font-size="14" fill="#667eea" text-anchor="middle" font-weight="600">Free Tool</text>
  </g>
  <g transform="translate(820, 578)">
    <rect x="0" y="0" width="140" height="34" rx="17" fill="#667eea" opacity="0.12"/>
    <text x="70" y="23" font-family="system-ui, sans-serif" font-size="14" fill="#667eea" text-anchor="middle" font-weight="600">All Instruments</text>
  </g>
</svg>